<?xml version="1.0" encoding="utf-8"?>
<svg viewBox="36.98811173439026 130.11890268325806 350.0660264492035 128.13735342025757" xmlns="http://www.w3.org/2000/svg">
  <defs>
    <pattern id="pattern-0" x="0" y="0" width="20" height="20" patternUnits="userSpaceOnUse" viewBox="0 0 100 100">
      <path d="M 0 0 L 50 0 L 50 100 L 0 100 Z" style="fill: black;"/>
    </pattern>
  </defs>
  <g transform="matrix(1, 0, 0, 1, 36.988113, -3.963012)">
    <path style="stroke: rgb(0, 0, 0); fill: rgb(241, 230, 230);" d="M 20.438 200.064 C 78.845 169.365 87.045 194.169 95.388 200.169 C 90.176 208.74 71.128 231.612 20.438 200.064 Z"/>
    <ellipse transform="matrix(0.672671, 0.739942, -0.73994, 0.672673, 113.09731, -167.098372)" cx="242.62" cy="280.884" rx="12.928" ry="12.928" style="fill: rgb(158, 154, 247);"/>
    <ellipse transform="matrix(-0.672672, -0.739941, 0.739941, -0.672673, 45.469826, 407.270349)" cx="135.085" cy="156.389" rx="7.198" ry="7.198" style="fill: rgb(55, 55, 55);"/>
  </g>
  <path d="M 231.179 192.987 C 241.864 192.879 243.824 204.579 247.964 214.008 M 287.221 192.197 C 280.546 208.615 273.297 226.002 263.518 226.544 C 255.144 227.087 251.072 221.088 247.964 214.008 M 365.335 161.465 C 358.741 193.113 348.482 196.264 338.088 196.264 C 329.197 196.264 316.31 163.098 306.811 163.098" style="fill: none; stroke: rgba(76, 42, 125, 0.18);"/>
  <path style="fill: none; stroke: rgb(76, 42, 125);" d="M 197.083 242.814 C 196.465 242.891 218.126 193.319 231.168 192.965 M 287.235 192.196 C 290.252 184.773 293.36 177.051 296.332 171.758 C 299.004 167 301.591 163.15 306.79 163.15 M 367.917 146.099 C 367.138 151.863 366.274 156.959 365.335 161.465"/>
  <path style="stroke: rgb(0, 0, 0); stroke-dasharray: 2px; stroke-width: 0.5; fill: rgba(216, 216, 216, 0.19);" transform="matrix(0.850053, 0.526698, -0.526699, 0.850053, 108.800286, -526.116206)" d="M 472.631 615.304 L 381.352 615.304 L 426.992 536.256"/>
  <g>
    <line x1="287.161" y1="192.187" x2="190.287" y2="192.187" style="stroke: rgb(0, 0, 0); stroke-dasharray: 2px; stroke-width: 0.5;"/>
    <line x1="365.062" y1="162.433" x2="188.91" y2="162.433" style="stroke: rgb(0, 0, 0); stroke-dasharray: 2px; stroke-width: 0.5;"/>
  </g>
</svg>