<?xml version="1.0" encoding="UTF-8" standalone="no"?>
<?xml-stylesheet type="text/css" href="../css/style.css" ?>

<svg
   xmlns:dc="http://purl.org/dc/elements/1.1/"
   xmlns:cc="http://creativecommons.org/ns#"
   xmlns:rdf="http://www.w3.org/1999/02/22-rdf-syntax-ns#"
   xmlns:svg="http://www.w3.org/2000/svg"
   xmlns="http://www.w3.org/2000/svg"
   width="254"
   height="36"
   version="1.1">
    <g
       class="logo-text-emphasized">
      <path
         d="m 4,32 c 0,0 6.5,0 10,0 2,0 2,-2 2,-2 0,-16 0,2 0,-14 0,0 0,-2 -2,-2 -3.5,0 -10,0 -10,0 z m -4,-32 4,0 0,10 c 0,0 8.5,0 12,0 2,0 4,2 4,4 0,20 0,-2 0,18 0,2 -2,4 -4,4 -6,0 -16,0 -16,0 z" />
      <path
         d="m 30,6 0,4 -4,0 0,-4 z" />
      <path
         d="m 30,14 0,22 -4,0 0,-22 z" />
      <path
         d="m 36,4 4,0 0,6 6,0 0,4 -6,0 0,16 c 0,0 0,2 2,2 l 7,0 -2,4 -7,0 c -2,0 -4,-2 -4,-4 z" />
    </g>
    <g
       class="logo-text-regular">
      <path
         d="m 96,36 2,-4 c 4,0 8.5,0 13,0 2,0 2,-2 2,-2 l 0,-4 c 0,0 0,-2 -2,-2 -6,0 -4.5,0 -11,0 -2,0 -4,-2 -4,-4 l 0,-6 c 0,-2 2,-4 4,-4 3,0 9,0 13,0 l 2,4 c -6,0 -8.5,0 -13,0 -2,0 -2,2 -2,2 l 0,2 c 0,0 0,2 2,2 6,0 5,0 11,0 2,0 4,2 4,4 l 0,8 c 0,2 -2,4 -4,4 -4.5,0 -13,0 -17,0 z" />
      <path
         d="m 226,36 c 0,0 -7,0 -11,0 -2,0 -4,-2 -4,-4 0,-4 0,-10.5 0,-18 0,-2 2,-4 4,-4 4,0 11,0 11,0 l 2,4 -11,0 c 0,0 -2,0 -2,2 0,5.5 0,10.5 0,14 0,2 2,2 2,2 l 11,0 z" />
      <path
         d="m 206,6 0,4 -4,0 0,-4 z" />
      <path
         d="m 206,14 0,22 -4,0 0,-22 z" />
      <path
         d="m 137,0 0,36 c 3,0 4,0 4,0 0,-12.5 0,-9.5 0,-22 l 8,0 c 2,0 2,2 2,2 0,12 0,8 0,20 l 4,0 c 0,-12 0,-10 0,-22 0,-2 -2,-4 -4,-4 -3.5,0 -4,0 -10,0 l 0,-10 z" />
      <path
         d="m 121,4 4,0 0,6 6,0 0,4 -6,0 0,16 c 0,0 0,2 2,2 l 7,0 -1.5,4 -7.5,0 c -2,0 -4,-2 -4,-4 z" />
      <path
         d="m 176,10 c 2,0 4,2 4,4 0,3.5 0,10 0,10 l -16,0 0,6 c 0,0 0,2 2,2 1.5,0 14,0 14,0 l -2,4 c 0,0 -10,0 -14,0 -2,0 -4,-2 -4,-4 l 0,-18 c 0,-2 2,-4 4,-4 8,0 6,0 12,0 z m 0,10 0,-4 c 0,0 0,-2 -2,-2 -4,0 -4,0 -8,0 -2,0 -2,2 -2,2 l 0,4 z" />
      <path
         d="m 233,36 2,-4 c 4,0 8.5,0 13,0 2,0 2,-2 2,-2 l 0,-4 c 0,0 0,-2 -2,-2 -6,0 -4.5,0 -11,0 -2,0 -4,-2 -4,-4 l 0,-6 c 0,-2 2,-4 4,-4 3,0 9,0 13,0 l 2,4 c -6,0 -8.5,0 -13,0 -2,0 -2,2 -2,2 l 0,2 c 0,0 0,2 2,2 6,0 5,0 11,0 2,0 4,2 4,4 l 0,8 c 0,2 -2,4 -4,4 -4.5,0 -13,0 -17,0 z" />
      <path
         d="m 55,10 2,4 13,0 c 0,0 2,0 2,2 0,2 0,2 0,4 l -15,0 c -2,0 -4,2 -4,4 l 0,8 c 0,2 2,4 4,4 4,0 10.5,0 15,0 2,0 4,-2 4,-4 0,-3 0,-4.5 0,-8 0,0 6.5,0 12,0 2,0 4,-2 4,-4 0,-1.5 0,-3 0,-4 l 0,-2 c 0,-2 -2,-4 -4,-4 l -11.25,0 c -0.5,0 -1,0 -1.5,0.5 1.5,0.5 2,2 2,3.5 l 0,0.5 c 0.5,-0.5 1,-0.5 1.5,-0.5 l 7.25,0 c 2,0 2,2 2,2 l 0,2 c 0,2 -2,2 -2,2 l -10,0 0,-6 c 0,-2 -2,-4 -4,-4 z m 4,14 13,0 c 0,2 0,4 0,5.5 0,2.5 -2,2.5 -2,2.5 l -11,0 c -2,0 -2,-2 -2,-2 l 0,-4 c 0,0 0,-2 2,-2 z m 18.25,7.5 0,0.5 c 0,1.5 -1,3 -2,3.5 0.5,0.5 1,0.5 1.5,0.5 l 12.75,0 2,-4 -12.75,0 c -0.5,0 -1,0 -1.5,-0.5 z" />
      <path
         d="m 185,4 4,0 0,6 6,0 0,4 -6,0 0,16 c 0,0 0,2 2,2 l 7,0 -1.5,4 -7.5,0 c -2,0 -4,-2 -4,-4 z" />
    </g>
</svg>
