<?xml version="1.0" encoding="UTF-8" standalone="no"?>
<svg
   xmlns:dc="http://purl.org/dc/elements/1.1/"
   xmlns:cc="http://creativecommons.org/ns#"
   xmlns:rdf="http://www.w3.org/1999/02/22-rdf-syntax-ns#"
   xmlns:svg="http://www.w3.org/2000/svg"
   xmlns="http://www.w3.org/2000/svg"
   xmlns:sodipodi="http://sodipodi.sourceforge.net/DTD/sodipodi-0.dtd"
   xmlns:inkscape="http://www.inkscape.org/namespaces/inkscape"
   width="800"
   height="1050"
   version="1.1"
   id="svg3255"
   inkscape:version="0.48.3.1 r9886"
   sodipodi:docname="logo.v2.svg">
  <defs
     id="defs3275" />
  <sodipodi:namedview
     pagecolor="#ffffff"
     bordercolor="#666666"
     borderopacity="1"
     objecttolerance="10"
     gridtolerance="10"
     guidetolerance="10"
     inkscape:pageopacity="0"
     inkscape:pageshadow="2"
     inkscape:window-width="1301"
     inkscape:window-height="744"
     id="namedview3273"
     showgrid="false"
     inkscape:zoom="2"
     inkscape:cx="299.45116"
     inkscape:cy="989.61028"
     inkscape:window-x="65"
     inkscape:window-y="24"
     inkscape:window-maximized="1"
     inkscape:current-layer="svg3255">
    <inkscape:grid
       type="xygrid"
       id="grid3291" />
  </sodipodi:namedview>
  <metadata
     id="metadata3243">
    <rdf:RDF>
      <cc:Work
         rdf:about="">
        <dc:format>image/svg+xml</dc:format>
        <dc:type
           rdf:resource="http://purl.org/dc/dcmitype/StillImage" />
        <dc:title />
      </cc:Work>
    </rdf:RDF>
  </metadata>
  <path
     inkscape:connector-curvature="0"
     d="m 37,94 c 0,0 13,0 20,0 4,0 4,-4 4,-4 0,-32 0,4 0,-28 0,0 0,-4 -4,-4 -7,0 -20,0 -20,0 z m -8,-64 8,0 0,20 c 0,0 17,0 24,0 4,0 8,4 8,8 0,40 0,-4 0,36 0,4 -4,8 -8,8 -12,0 -32,0 -32,0 z"
     style="font-size:40px;font-style:normal;font-variant:normal;font-weight:300;font-stretch:normal;text-align:start;line-height:125%;letter-spacing:0px;word-spacing:0px;writing-mode:lr-tb;text-anchor:start;fill:#438f99;fill-opacity:1;stroke:none;font-family:Sansation Light;-inkscape-font-specification:'Sansation Light, Light'"
     id="path3952" />
  <path
     inkscape:connector-curvature="0"
     d="m 89,42 0,8 -8,0 0,-8 z"
     style="font-size:40px;font-style:normal;font-variant:normal;font-weight:300;font-stretch:normal;text-align:start;line-height:125%;letter-spacing:0px;word-spacing:0px;writing-mode:lr-tb;text-anchor:start;fill:#438f99;fill-opacity:1;stroke:none;font-family:Sansation Light;-inkscape-font-specification:'Sansation Light, Light'"
     id="path3954" />
  <path
     inkscape:connector-curvature="0"
     d="m 223,102 4,-8 c 8,0 17,0 26,0 4,0 4,-4 4,-4 l 0,-9 c 0,0 0,-4 -4,-4 -12,0 -9,0 -22,0 -4,0 -8,-4 -8,-8 l 0,-11 c 0,-4 4,-8 8,-8 6,0 18,0 26,0 l 4,8 c -12,0 -17,0 -26,0 -4,0 -4,4 -4,4 l 0,3 c 0,0 0,4 4,4 12,0 10,0 22,0 4,0 8,4 8,8 l 0,17 c 0,4 -4,8 -8,8 -9,0 -26,0 -34,0 z"
     style="font-size:40px;font-style:normal;font-variant:normal;font-weight:300;font-stretch:normal;text-align:start;line-height:125%;letter-spacing:0px;word-spacing:0px;writing-mode:lr-tb;text-anchor:start;fill:#b7b69a;fill-opacity:1;stroke:none;font-family:Sansation Light;-inkscape-font-specification:'Sansation Light, Light'"
     id="path3956" />
  <path
     inkscape:connector-curvature="0"
     d="m 482,102 c 0,0 -14,0 -22,0 -4,0 -8,-4 -8,-8 0,-8 0,-21 0,-36 0,-4 4,-8 8,-8 8,0 22,0 22,0 l 4,8 -22,0 c 0,0 -4,0 -4,4 0,11 0,21 0,28 0,4 4,4 4,4 l 22,0 z"
     style="font-size:40px;font-style:normal;font-variant:normal;font-weight:300;font-stretch:normal;text-align:start;line-height:125%;letter-spacing:0px;word-spacing:0px;writing-mode:lr-tb;text-anchor:start;fill:#b7b69a;fill-opacity:1;stroke:none;font-family:Sansation Light;-inkscape-font-specification:'Sansation Light, Light'"
     id="path3958" />
  <path
     inkscape:connector-curvature="0"
     id="path3960"
     style="font-size:40px;font-style:normal;font-variant:normal;font-weight:300;font-stretch:normal;text-align:start;line-height:125%;letter-spacing:0px;word-spacing:0px;writing-mode:lr-tb;text-anchor:start;fill:#b7b69a;fill-opacity:1;stroke:none;font-family:Sansation Light;-inkscape-font-specification:'Sansation Light, Light'"
     d="m 441,42 0,8 -8,0 0,-8 z" />
  <path
     inkscape:connector-curvature="0"
     d="m 441,58 0,44 -8,0 0,-44 z"
     style="font-size:40px;font-style:normal;font-variant:normal;font-weight:300;font-stretch:normal;text-align:start;line-height:125%;letter-spacing:0px;word-spacing:0px;writing-mode:lr-tb;text-anchor:start;fill:#b7b69a;fill-opacity:1;stroke:none;font-family:Sansation Light;-inkscape-font-specification:'Sansation Light, Light'"
     id="path3962" />
  <path
     inkscape:connector-curvature="0"
     id="path3964"
     d="m 306,30 0,72 c 6,0 8,0 8,0 0,-25 0,-19 0,-44 l 16,0 c 4,0 4,4 4,4 0,24 0,16 0,40 l 8,0 c 0,-24 0,-20 0,-44 0,-4 -4,-8 -8,-8 -7,0 -8,0 -20,0 l 0,-20 z"
     style="font-size:40px;font-style:normal;font-variant:normal;font-weight:300;font-stretch:normal;text-align:start;line-height:125%;letter-spacing:0px;word-spacing:0px;writing-mode:lr-tb;text-anchor:start;fill:#b7b69a;fill-opacity:1;stroke:none;font-family:Sansation Light;-inkscape-font-specification:'Sansation Light, Light'" />
  <path
     inkscape:connector-curvature="0"
     id="path3966"
     style="font-size:40px;font-style:normal;font-variant:normal;font-weight:300;font-stretch:normal;text-align:start;line-height:125%;letter-spacing:0px;word-spacing:0px;writing-mode:lr-tb;text-anchor:start;fill:#b7b69a;fill-opacity:1;stroke:none;font-family:Sansation Light;-inkscape-font-specification:'Sansation Light, Light'"
     d="m 273,38 8,0 0,12 13,0 0,8 -13,0 0,32 c 0,0 0,4 4,4 l 14,0 -3,8 -15,0 c -4,0 -8,-4 -8,-8 z" />
  <path
     inkscape:connector-curvature="0"
     d="m 383,50 c 4,0 8,4 8,8 0,7 0,19 0,19 l -33,0 0,13 c 0,0 0,4 4,4 3,0 29,0 29,0 l -4,8 c 0,0 -21,0 -29,0 -4,0 -8,-4 -8,-8 l 0,-36 c 0,-4 4,-8 8,-8 16,0 13,0 25,0 z m 0,19 0,-7 c 0,0 0,-4 -4,-4 -8,0 -9,0 -17,0 -4,0 -4,4 -4,4 l 0,7 z"
     style="font-size:40px;font-style:normal;font-variant:normal;font-weight:300;font-stretch:normal;text-align:start;line-height:125%;letter-spacing:0px;word-spacing:0px;writing-mode:lr-tb;text-anchor:start;fill:#b7b69a;fill-opacity:1;stroke:none;font-family:Sansation Light;-inkscape-font-specification:'Sansation Light, Light'"
     id="path3968" />
  <path
     inkscape:connector-curvature="0"
     id="path3025"
     style="font-size:40px;font-style:normal;font-variant:normal;font-weight:300;font-stretch:normal;text-align:start;line-height:125%;letter-spacing:0px;word-spacing:0px;writing-mode:lr-tb;text-anchor:start;fill:#b7b69a;fill-opacity:1;stroke:none;font-family:Sansation Light;-inkscape-font-specification:'Sansation Light, Light'"
     d="m 495,102 4,-8 c 8,0 17,0 26,0 4,0 4,-4 4,-4 l 0,-9 c 0,0 0,-4 -4,-4 -12,0 -9,0 -22,0 -4,0 -8,-4 -8,-8 l 0,-11 c 0,-4 4,-8 8,-8 6,0 18,0 26,0 l 4,8 c -12,0 -17,0 -26,0 -4,0 -4,4 -4,4 l 0,3 c 0,0 0,4 4,4 12,0 10,0 22,0 4,0 8,4 8,8 l 0,17 c 0,4 -4,8 -8,8 -9,0 -26,0 -34,0 z" />
  <path
     inkscape:connector-curvature="0"
     id="path3972"
     d="m 140,50 4,8 25,0 c 0,0 4,0 4,4 0,4 0,3 0,7 l -29,0 c -4,0 -8,4 -8,8 l 0,17 c 0,4 4,8 8,8 8,0 20,0 29,0 4,0 8,-4 8,-8 0,-6 0,-10 0,-17 0,0 15,0 26,0 4,0 8,-4 8,-8 0,-3 0,-5 0,-7 l 0,-4 c 0,-4 -4,-8 -8,-8 l -26,0 c -1,0 -2,0 -3,1 3,1 4,4 4,7 l 0,1 c 1,-1 2,-1 3,-1 l 18,0 c 4,0 4,4 4,4 l 0,3 c 0,4 -4,4 -4,4 l -22,0 0,-11 c 0,-4 -4,-8 -8,-8 l -33,0 z m 8,27 25,0 c 0,4 0,9 0,12 0,5 -4,5 -4,5 l -21,0 c -4,0 -4,-4 -4,-4 l 0,-9 c 0,0 0,-4 4,-4 z m 34,16 0,1 c 0,3 -2,6 -4,7 1,1 2,1 3,1 l 30,0 4,-8 -30,0 c -1,0 -2,0 -3,-1 z"
     style="font-size:40px;font-style:normal;font-variant:normal;font-weight:300;font-stretch:normal;text-align:start;line-height:125%;letter-spacing:0px;word-spacing:0px;writing-mode:lr-tb;text-anchor:start;fill:#b7b69a;fill-opacity:1;stroke:none;font-family:Sansation Light;-inkscape-font-specification:'Sansation Light, Light'" />
  <path
     inkscape:connector-curvature="0"
     d="m 102,38 8,0 0,12 13,0 0,8 -13,0 0,32 c 0,0 0,4 4,4 l 14,0 -4,8 -14,0 c -4,0 -8,-4 -8,-8 z"
     style="font-size:40px;font-style:normal;font-variant:normal;font-weight:300;font-stretch:normal;text-align:start;line-height:125%;letter-spacing:0px;word-spacing:0px;writing-mode:lr-tb;text-anchor:start;fill:#438f99;fill-opacity:1;stroke:none;font-family:Sansation Light;-inkscape-font-specification:'Sansation Light, Light'"
     id="path3976" />
  <path
     inkscape:connector-curvature="0"
     d="m 399,38 8,0 0,12 13,0 0,8 -13,0 0,32 c 0,0 0,4 4,4 l 14,0 -3,8 -15,0 c -4,0 -8,-4 -8,-8 z"
     style="font-size:40px;font-style:normal;font-variant:normal;font-weight:300;font-stretch:normal;text-align:start;line-height:125%;letter-spacing:0px;word-spacing:0px;writing-mode:lr-tb;text-anchor:start;fill:#b7b69a;fill-opacity:1;stroke:none;font-family:Sansation Light;-inkscape-font-specification:'Sansation Light, Light'"
     id="path3978" />
  <path
     inkscape:connector-curvature="0"
     id="path3980"
     style="font-size:40px;font-style:normal;font-variant:normal;font-weight:300;font-stretch:normal;text-align:start;line-height:125%;letter-spacing:0px;word-spacing:0px;writing-mode:lr-tb;text-anchor:start;fill:#438f99;fill-opacity:1;stroke:none;font-family:Sansation Light;-inkscape-font-specification:'Sansation Light, Light'"
     d="m 89,58 0,44 -8,0 0,-44 z" />
</svg>
