<?xml version="1.0" encoding="UTF-8" standalone="no"?>
<!-- Created with Inkscape (http://www.inkscape.org/) -->

<svg
   xmlns:dc="http://purl.org/dc/elements/1.1/"
   xmlns:cc="http://creativecommons.org/ns#"
   xmlns:rdf="http://www.w3.org/1999/02/22-rdf-syntax-ns#"
   xmlns:svg="http://www.w3.org/2000/svg"
   xmlns="http://www.w3.org/2000/svg"
   xmlns:sodipodi="http://sodipodi.sourceforge.net/DTD/sodipodi-0.dtd"
   xmlns:inkscape="http://www.inkscape.org/namespaces/inkscape"
   width="744.09448819"
   height="1052.3622047"
   id="svg3238"
   version="1.1"
   inkscape:version="0.48.3.1 r9886"
   sodipodi:docname="logo.v2.svg">
  <defs
     id="defs3240">
    <linearGradient
       id="linearGradient3979">
      <stop
         style="stop-color:#2b7688;stop-opacity:1;"
         offset="0"
         id="stop3981" />
      <stop
         style="stop-color:#000000;stop-opacity:1;"
         offset="1"
         id="stop3983" />
    </linearGradient>
    <linearGradient
       id="linearGradient4000">
      <stop
         style="stop-color:#2b7688;stop-opacity:1;"
         offset="0"
         id="stop4002" />
      <stop
         style="stop-color:#ffffff;stop-opacity:1;"
         offset="1"
         id="stop4004" />
    </linearGradient>
  </defs>
  <sodipodi:namedview
     id="base"
     pagecolor="#ffffff"
     bordercolor="#666666"
     borderopacity="1.0"
     inkscape:pageopacity="0.0"
     inkscape:pageshadow="2"
     inkscape:zoom="1"
     inkscape:cx="318.46001"
     inkscape:cy="268.5"
     inkscape:document-units="px"
     inkscape:current-layer="layer1"
     showgrid="false"
     inkscape:window-width="1301"
     inkscape:window-height="744"
     inkscape:window-x="65"
     inkscape:window-y="24"
     inkscape:window-maximized="1"
     showguides="true"
     inkscape:guide-bbox="true">
    <inkscape:grid
       type="xygrid"
       id="grid3302" />
  </sodipodi:namedview>
  <metadata
     id="metadata3243">
    <rdf:RDF>
      <cc:Work
         rdf:about="">
        <dc:format>image/svg+xml</dc:format>
        <dc:type
           rdf:resource="http://purl.org/dc/dcmitype/StillImage" />
        <dc:title />
      </cc:Work>
    </rdf:RDF>
  </metadata>
  <g
     inkscape:label="Layer 1"
     inkscape:groupmode="layer"
     id="layer1">
    <path
       inkscape:connector-curvature="0"
       id="path3952"
       style="font-size:40px;font-style:normal;font-variant:normal;font-weight:300;font-stretch:normal;text-align:start;line-height:125%;letter-spacing:0px;word-spacing:0px;writing-mode:lr-tb;text-anchor:start;fill:#358fa6;fill-opacity:1;stroke:none;font-family:Sansation Light;-inkscape-font-specification:'Sansation Light, Light'"
       d="m 117.0001,762.35575 c 0,0 13.22917,0 20.00001,0 4,0 4,-4 4,-4 0,-32.00001 0,4 0,-28.00001 0,0 0,-3.99996 -4,-4 -7.50004,0 -20.00001,0 -20.00001,0 z m -8,-64.00002 8.20312,0 -0.2032,20.00001 c 0,0 16.91669,0 24.00009,0 4,0 8,4 8,8 0,40.00001 0,-4 0,36.00001 0,4.00001 -4,8.00001 -8,8.00001 -11.77088,0 -32.00009,-2e-4 -32.00009,-2e-4 z"
       sodipodi:nodetypes="csccscccccsccscc"
       inkscape:export-filename="C:\Users\paul\bitaesthetics\logo_small1.png"
       inkscape:export-xdpi="449.99805"
       inkscape:export-ydpi="449.99805" />
    <path
       inkscape:connector-curvature="0"
       id="path3954"
       style="font-size:40px;font-style:normal;font-variant:normal;font-weight:300;font-stretch:normal;text-align:start;line-height:125%;letter-spacing:0px;word-spacing:0px;writing-mode:lr-tb;text-anchor:start;fill:#358fa6;fill-opacity:1;stroke:none;font-family:Sansation Light;-inkscape-font-specification:'Sansation Light, Light'"
       d="m 169.00012,710.35573 0,8.00001 -8,0 0,-8.00001 z"
       sodipodi:nodetypes="ccccc"
       inkscape:export-filename="C:\Users\paul\bitaesthetics\logo_small1.png"
       inkscape:export-xdpi="449.99805"
       inkscape:export-ydpi="449.99805" />
    <path
       inkscape:connector-curvature="0"
       id="path3956"
       style="font-size:40px;font-style:normal;font-variant:normal;font-weight:300;font-stretch:normal;text-align:start;line-height:125%;letter-spacing:0px;word-spacing:0px;writing-mode:lr-tb;text-anchor:start;fill:#b7b69a;fill-opacity:1;stroke:none;font-family:Sansation Light;-inkscape-font-specification:'Sansation Light, Light'"
       d="m 302.99997,770.35576 4.0003,-8.00001 c 8.305,0.1832 17.1979,0 26.0001,0 4,0 4,-4 4,-4 l -4e-4,-9 c 0,0 4e-4,-4.01876 -3.9996,-4 -12,0 -8.6783,0.046 -22.0004,0 -3.7712,0 -7.9997,-4 -8,-8.00001 l 3e-4,-11 c 0,-4 4.8005,-7.99996 8.0001,-8 15.0014,-0.024 11.2755,0 25.9996,0 l 3.9999,8 c -12,0 -17.2496,8e-5 -25.9995,0 -4,0 -4,4 -4,4 l -2e-4,2.99988 c 0,0 2e-4,4.00012 4,4 12.0002,1.2e-4 10.0002,1.2e-4 22.0002,1.2e-4 4.0004,-0.1876 8,4.00001 7.9996,8.00001 l 0,17 c 0,4.00001 -4,8.00001 -8,8.00001 -8.8021,-4e-5 -25.9999,0 -34,0 z"
       sodipodi:nodetypes="ccccccccccccccccccccc"
       inkscape:export-filename="C:\Users\paul\bitaesthetics\logo_text.png"
       inkscape:export-xdpi="165.78908"
       inkscape:export-ydpi="165.78908" />
    <path
       inkscape:connector-curvature="0"
       id="path3958"
       style="font-size:40px;font-style:normal;font-variant:normal;font-weight:300;font-stretch:normal;text-align:start;line-height:125%;letter-spacing:0px;word-spacing:0px;writing-mode:lr-tb;text-anchor:start;fill:#b7b69a;fill-opacity:1;stroke:none;font-family:Sansation Light;-inkscape-font-specification:'Sansation Light, Light'"
       d="m 561.99997,770.35576 c 0,0 -14.1872,0 -21.9997,0 -3.9996,4e-5 -8,-4 -8,-8.00001 0,-8 0,-20.63456 0,-36.00001 0,-4 4.0004,-7.99996 8,-8 8,0 21.9997,0 21.9997,0 l 4,8 -21.9997,0 c 0,0 -4,0.2288 -4,4 -10e-5,10.64925 -10e-5,21.36713 0,28.00001 -3e-4,3.77124 4,4 4,4 l 21.9997,0 z"
       sodipodi:nodetypes="csscccccccccc"
       inkscape:export-filename="C:\Users\paul\bitaesthetics\logo_text.png"
       inkscape:export-xdpi="165.78908"
       inkscape:export-ydpi="165.78908" />
    <path
       inkscape:export-ydpi="449.99805"
       inkscape:export-xdpi="449.99805"
       inkscape:export-filename="C:\Users\paul\bitaesthetics\logo_small1.png"
       sodipodi:nodetypes="ccccc"
       d="m 521.00012,710.36217 0,8.00001 -8,0 0,-8.00001 z"
       style="font-size:40px;font-style:normal;font-variant:normal;font-weight:300;font-stretch:normal;text-align:start;line-height:125%;letter-spacing:0px;word-spacing:0px;writing-mode:lr-tb;text-anchor:start;fill:#b7b69a;fill-opacity:1;stroke:none;font-family:Sansation Light;-inkscape-font-specification:'Sansation Light, Light'"
       id="path3960"
       inkscape:connector-curvature="0" />
    <path
       inkscape:connector-curvature="0"
       id="path3962"
       style="font-size:40px;font-style:normal;font-variant:normal;font-weight:300;font-stretch:normal;text-align:start;line-height:125%;letter-spacing:0px;word-spacing:0px;writing-mode:lr-tb;text-anchor:start;fill:#b7b69a;fill-opacity:1;stroke:none;font-family:Sansation Light;-inkscape-font-specification:'Sansation Light, Light'"
       d="m 521.00012,726.36216 0,44.00002 -8,0 0,-44.00002 z"
       sodipodi:nodetypes="ccccc"
       inkscape:export-filename="C:\Users\paul\bitaesthetics\logo_small1.png"
       inkscape:export-xdpi="449.99805"
       inkscape:export-ydpi="449.99805" />
    <path
       style="font-size:40px;font-style:normal;font-variant:normal;font-weight:300;font-stretch:normal;text-align:start;line-height:125%;letter-spacing:0px;word-spacing:0px;writing-mode:lr-tb;text-anchor:start;fill:#b7b69a;fill-opacity:1;stroke:none;font-family:Sansation Light;-inkscape-font-specification:'Sansation Light, Light'"
       d="m 385.99987,698.35557 0,72.00019 c 6,0 8,0 8,0 0,-25.33333 0,-18.61541 0,-43.94874 l 16.0004,-0.0513 c 3.99999,-0.0128 3.9997,4.05128 3.9997,4.05128 -1e-4,24.01153 0,15.73993 0,39.94874 l 8,0 c -1e-4,-23.98293 3e-4,-20.01709 3e-4,-44.00002 0,-4 -4,-8 -8,-8 -7.0834,0 -8.0003,0.0516 -20.0004,0.0516 l 2e-4,-20.05139 z"
       id="path3964"
       inkscape:connector-curvature="0"
       sodipodi:nodetypes="ccccscccssccc"
       inkscape:export-filename="C:\Users\paul\bitaesthetics\logo_text.png"
       inkscape:export-xdpi="165.78908"
       inkscape:export-ydpi="165.78908" />
    <path
       sodipodi:nodetypes="ccccccccccssc"
       d="m 353.00017,706.35573 8,0 0,12.00001 13,0 0,8 -13,0 0,32.00001 c 0,0 0,4 4,4 l 14,0 -3.0001,8.00001 -14.9999,0 c -4,0 -8,-4 -8,-8.00001 z"
       style="font-size:40px;font-style:normal;font-variant:normal;font-weight:300;font-stretch:normal;text-align:start;line-height:125%;letter-spacing:0px;word-spacing:0px;writing-mode:lr-tb;text-anchor:start;fill:#b7b69a;fill-opacity:1;stroke:none;font-family:Sansation Light;-inkscape-font-specification:'Sansation Light, Light'"
       id="path3966"
       inkscape:connector-curvature="0"
       inkscape:export-filename="C:\Users\paul\bitaesthetics\logo_text.png"
       inkscape:export-xdpi="165.78908"
       inkscape:export-ydpi="165.78908" />
    <path
       inkscape:connector-curvature="0"
       id="path3968"
       style="font-size:40px;font-style:normal;font-variant:normal;font-weight:300;font-stretch:normal;text-align:start;line-height:125%;letter-spacing:0px;word-spacing:0px;writing-mode:lr-tb;text-anchor:start;fill:#b7b69a;fill-opacity:1;stroke:none;font-family:Sansation Light;-inkscape-font-specification:'Sansation Light, Light'"
       d="m 463.00027,718.35574 c 4.0003,0 7.98082,4 7.98052,8 0.0514,7.3109 0.0193,19.00019 0.0193,19.00019 l -32.9998,0.006 -3e-4,13 c 0,0 10e-6,4.00025 4,3.99357 3.00001,-0.005 28.9997,0 28.9997,0 l -4,8.00001 c 0,0 -20.9994,0 -28.9994,0 -3.9999,0 -8.00009,-4 -8.0001,-8.00001 l -1.2e-4,-36.00001 c 0,-3.77124 4.2288,-8 8,-8 16.0542,0 13.4528,0 25.0002,0 z M 463,737.36218 l 7e-5,-7.00644 c 0,0 4e-4,-3.99996 -3.9998,-4 -7.9692,0 -9,0 -17,0 -4,0 -4,4 -4,4 l 0,7 z"
       sodipodi:nodetypes="cccccsccsscccccsscccc"
       inkscape:export-filename="C:\Users\paul\bitaesthetics\logo_text.png"
       inkscape:export-xdpi="165.78908"
       inkscape:export-ydpi="165.78908" />
    <path
       inkscape:export-ydpi="165.78908"
       inkscape:export-xdpi="165.78908"
       inkscape:export-filename="C:\Users\paul\bitaesthetics\logo_text.png"
       sodipodi:nodetypes="ccccccccccccccccccccc"
       d="m 574.99997,770.35576 4.0003,-8.00001 c 8.305,0.1832 17.1979,0 26.0001,0 4,0 4,-4 4,-4 l -4e-4,-9 c 0,0 4e-4,-4.01876 -3.9996,-4 -12,0 -8.6783,0.046 -22.0004,0 -3.7712,0 -7.9997,-4 -8,-8.00001 l 3e-4,-11 c 0,-4 4.8005,-7.99996 8.0001,-8 15.0014,-0.024 11.2755,0 25.9996,0 l 3.9999,8 c -12,0 -17.2496,8e-5 -25.9995,0 -4,0 -4,4 -4,4 l -2e-4,2.99988 c 0,0 2e-4,4.00012 4,4 12.0002,1.2e-4 10.0002,1.2e-4 22.0002,1.2e-4 4.0004,-0.1876 8,4.00001 7.9996,8.00001 l 0,17 c 0,4.00001 -4,8.00001 -8,8.00001 -8.8021,-4e-5 -25.9999,0 -34,0 z"
       style="font-size:40px;font-style:normal;font-variant:normal;font-weight:300;font-stretch:normal;text-align:start;line-height:125%;letter-spacing:0px;word-spacing:0px;writing-mode:lr-tb;text-anchor:start;fill:#b7b69a;fill-opacity:1;stroke:none;font-family:Sansation Light;-inkscape-font-specification:'Sansation Light, Light'"
       id="path3970"
       inkscape:connector-curvature="0" />
    <path
       style="font-size:40px;font-style:normal;font-variant:normal;font-weight:300;font-stretch:normal;text-align:start;line-height:125%;letter-spacing:0px;word-spacing:0px;writing-mode:lr-tb;text-anchor:start;fill:#b7b69a;fill-opacity:1;stroke:none;font-family:Sansation Light;-inkscape-font-specification:'Sansation Light, Light'"
       d="M 220 718.375 L 224 726.375 L 249 726.375 C 249 726.375 253 726.375 253 730.375 C 253.00005 734.54892 253 733.15436 253 737.375 L 224 737.375 C 220.3675 737.375 216 741.375 216 745.375 L 216 762.375 C 216 766.375 220 770.375 224 770.375 C 232.5 770.3751 244.125 770.375 253 770.375 C 257 770.375 260.9999 766.375 261 762.375 C 261.0001 756.7083 261 752.7877 261 745.375 C 261 745.375 276.3333 745.3745 287 745.375 C 290.9999 745.3752 294.9999 741.3752 295 737.375 C 295.0001 734.375 295 732.655 295 730.375 L 295 726.375 C 295.0003 722.375 291.0003 718.375 287 718.375 L 261 718.375 C 259.8553 718.375 258.6605 718.75815 257.5625 719.40625 C 260.0736 720.84695 262 723.6027 262 726.375 L 262 727.59375 C 262.5877 726.90625 263.5238 726.375 265 726.375 L 283 726.375 C 287.0002 726.375 287 730.375 287 730.375 L 287 733.375 C 287 737.375 283 737.375 283 737.375 L 261 737.375 L 261 726.375 C 261 722.375 257 718.375 253 718.375 L 220 718.375 z M 228 745.375 L 253 745.375 C 252.99993 749.76757 253 753.95165 253 757.875 C 252.9998 762.3752 249 762.375 249 762.375 L 228 762.375 C 224 762.375 224 758.375 224 758.375 L 224 749.375 C 224 749.375 224 745.375 228 745.375 z M 262 761.15625 L 262 762.375 C 261.9999 765.1696 260.0408 767.9445 257.5 769.375 C 258.5959 769.992 259.7946 770.375 261 770.375 L 291 770.375 L 295 762.375 L 265 762.375 C 263.5238 762.375 262.5877 761.84375 262 761.15625 z "
       id="path3972" />
    <path
       inkscape:export-ydpi="449.99805"
       inkscape:export-xdpi="449.99805"
       inkscape:export-filename="C:\Users\paul\bitaesthetics\logo_small1.png"
       inkscape:connector-curvature="0"
       id="path3976"
       style="font-size:40px;font-style:normal;font-variant:normal;font-weight:300;font-stretch:normal;text-align:start;line-height:125%;letter-spacing:0px;word-spacing:0px;writing-mode:lr-tb;text-anchor:start;fill:#358fa6;fill-opacity:1;stroke:none;font-family:Sansation Light;-inkscape-font-specification:'Sansation Light, Light'"
       d="m 182.00017,706.35573 8,0 0,12.00001 13,0 0,8 -13,0 0,32.00001 c 0,0 0,4 4,4 l 14,0 -4.0001,8.00001 -13.9999,0 c -4,0 -8,-4 -8,-8.00001 z"
       sodipodi:nodetypes="ccccccccccssc" />
    <path
       inkscape:export-ydpi="165.78908"
       inkscape:export-xdpi="165.78908"
       inkscape:export-filename="C:\Users\paul\bitaesthetics\logo_text.png"
       inkscape:connector-curvature="0"
       id="path3978"
       style="font-size:40px;font-style:normal;font-variant:normal;font-weight:300;font-stretch:normal;text-align:start;line-height:125%;letter-spacing:0px;word-spacing:0px;writing-mode:lr-tb;text-anchor:start;fill:#b7b69a;fill-opacity:1;stroke:none;font-family:Sansation Light;-inkscape-font-specification:'Sansation Light, Light'"
       d="m 479.00017,706.35573 8,0 0,12.00001 13,0 0,8 -13,0 0,32.00001 c 0,0 0,4 4,4 l 14,0 -3.0001,8.00001 -14.9999,0 c -4,0 -8,-4 -8,-8.00001 z"
       sodipodi:nodetypes="ccccccccccssc" />
    <path
       inkscape:export-ydpi="449.99805"
       inkscape:export-xdpi="449.99805"
       inkscape:export-filename="C:\Users\paul\bitaesthetics\logo_small1.png"
       sodipodi:nodetypes="ccccc"
       d="m 169.00012,726.35574 0,44.00002 -8,0 0,-44.00002 z"
       style="font-size:40px;font-style:normal;font-variant:normal;font-weight:300;font-stretch:normal;text-align:start;line-height:125%;letter-spacing:0px;word-spacing:0px;writing-mode:lr-tb;text-anchor:start;fill:#358fa6;fill-opacity:1;stroke:none;font-family:Sansation Light;-inkscape-font-specification:'Sansation Light, Light'"
       id="path3980"
       inkscape:connector-curvature="0" />
    <path
       inkscape:export-ydpi="449.99805"
       inkscape:export-xdpi="449.99805"
       inkscape:export-filename="C:\Users\paul\bitaesthetics\logo_small1.png"
       sodipodi:nodetypes="csccscccccsccscc"
       d="m 117.0001,882.35575 c 0,0 13.22917,0 20.00001,0 4,0 4,-4 4,-4 0,-32.00001 0,4 0,-28.00001 0,0 0,-3.99996 -4,-4 -7.50004,0 -20.00001,0 -20.00001,0 z m -8,-64.00002 8.20312,0 -0.2032,20.00001 c 0,0 16.91669,0 24.00009,0 4,0 8,4 8,8 0,40.00001 0,-4 0,36.00001 0,4.00001 -4,8.00001 -8,8.00001 -11.77088,0 -32.00009,-2e-4 -32.00009,-2e-4 z"
       style="font-size:40px;font-style:normal;font-variant:normal;font-weight:300;font-stretch:normal;text-align:start;line-height:125%;letter-spacing:0px;word-spacing:0px;writing-mode:lr-tb;text-anchor:start;fill:#b34e28;fill-opacity:1;stroke:none;font-family:Sansation Light;-inkscape-font-specification:'Sansation Light, Light'"
       id="path3785"
       inkscape:connector-curvature="0" />
    <path
       inkscape:export-ydpi="449.99805"
       inkscape:export-xdpi="449.99805"
       inkscape:export-filename="C:\Users\paul\bitaesthetics\logo_small1.png"
       sodipodi:nodetypes="ccccc"
       d="m 169.00012,830.35573 0,8.00001 -8,0 0,-8.00001 z"
       style="font-size:40px;font-style:normal;font-variant:normal;font-weight:300;font-stretch:normal;text-align:start;line-height:125%;letter-spacing:0px;word-spacing:0px;writing-mode:lr-tb;text-anchor:start;fill:#b34e28;fill-opacity:1;stroke:none;font-family:Sansation Light;-inkscape-font-specification:'Sansation Light, Light'"
       id="path3787"
       inkscape:connector-curvature="0" />
    <path
       inkscape:export-ydpi="165.78908"
       inkscape:export-xdpi="165.78908"
       inkscape:export-filename="C:\Users\paul\bitaesthetics\logo_text.png"
       sodipodi:nodetypes="ccccccccccccccccccccc"
       d="m 302.99997,890.35576 4.0003,-8.00001 c 8.305,0.1832 17.1979,0 26.0001,0 4,0 4,-4 4,-4 l -4e-4,-9 c 0,0 4e-4,-4.01876 -3.9996,-4 -12,0 -8.6783,0.046 -22.0004,0 -3.7712,0 -7.9997,-4 -8,-8.00001 l 3e-4,-11 c 0,-4 4.8005,-7.99996 8.0001,-8 15.0014,-0.024 11.2755,0 25.9996,0 l 3.9999,8 c -12,0 -17.2496,8e-5 -25.9995,0 -4,0 -4,4 -4,4 l -2e-4,2.99988 c 0,0 2e-4,4.00012 4,4 12.0002,1.2e-4 10.0002,1.2e-4 22.0002,1.2e-4 4.0004,-0.1876 8,4.00001 7.9996,8.00001 l 0,17 c 0,4.00001 -4,8.00001 -8,8.00001 -8.8021,-4e-5 -25.9999,0 -34,0 z"
       style="font-size:40px;font-style:normal;font-variant:normal;font-weight:300;font-stretch:normal;text-align:start;line-height:125%;letter-spacing:0px;word-spacing:0px;writing-mode:lr-tb;text-anchor:start;fill:#beb7b7;fill-opacity:1;stroke:none;font-family:Sansation Light;-inkscape-font-specification:'Sansation Light, Light'"
       id="path3789"
       inkscape:connector-curvature="0" />
    <path
       inkscape:export-ydpi="165.78908"
       inkscape:export-xdpi="165.78908"
       inkscape:export-filename="C:\Users\paul\bitaesthetics\logo_text.png"
       sodipodi:nodetypes="csscccccccccc"
       d="m 561.99997,890.35576 c 0,0 -14.1872,0 -21.9997,0 -3.9996,4e-5 -8,-4 -8,-8.00001 0,-8 0,-20.63456 0,-36.00001 0,-4 4.0004,-7.99996 8,-8 8,0 21.9997,0 21.9997,0 l 4,8 -21.9997,0 c 0,0 -4,0.2288 -4,4 -10e-5,10.64925 -10e-5,21.36713 0,28.00001 -3e-4,3.77124 4,4 4,4 l 21.9997,0 z"
       style="font-size:40px;font-style:normal;font-variant:normal;font-weight:300;font-stretch:normal;text-align:start;line-height:125%;letter-spacing:0px;word-spacing:0px;writing-mode:lr-tb;text-anchor:start;fill:#beb7b7;fill-opacity:1;stroke:none;font-family:Sansation Light;-inkscape-font-specification:'Sansation Light, Light'"
       id="path3791"
       inkscape:connector-curvature="0" />
    <path
       inkscape:connector-curvature="0"
       id="path3793"
       style="font-size:40px;font-style:normal;font-variant:normal;font-weight:300;font-stretch:normal;text-align:start;line-height:125%;letter-spacing:0px;word-spacing:0px;writing-mode:lr-tb;text-anchor:start;fill:#beb7b7;fill-opacity:1;stroke:none;font-family:Sansation Light;-inkscape-font-specification:'Sansation Light, Light'"
       d="m 521.00012,830.36217 0,8.00001 -8,0 0,-8.00001 z"
       sodipodi:nodetypes="ccccc"
       inkscape:export-filename="C:\Users\paul\bitaesthetics\logo_small1.png"
       inkscape:export-xdpi="449.99805"
       inkscape:export-ydpi="449.99805" />
    <path
       inkscape:export-ydpi="449.99805"
       inkscape:export-xdpi="449.99805"
       inkscape:export-filename="C:\Users\paul\bitaesthetics\logo_small1.png"
       sodipodi:nodetypes="ccccc"
       d="m 521.00012,846.36216 0,44.00002 -8,0 0,-44.00002 z"
       style="font-size:40px;font-style:normal;font-variant:normal;font-weight:300;font-stretch:normal;text-align:start;line-height:125%;letter-spacing:0px;word-spacing:0px;writing-mode:lr-tb;text-anchor:start;fill:#beb7b7;fill-opacity:1;stroke:none;font-family:Sansation Light;-inkscape-font-specification:'Sansation Light, Light'"
       id="path3795"
       inkscape:connector-curvature="0" />
    <path
       inkscape:export-ydpi="165.78908"
       inkscape:export-xdpi="165.78908"
       inkscape:export-filename="C:\Users\paul\bitaesthetics\logo_text.png"
       sodipodi:nodetypes="ccccscccssccc"
       inkscape:connector-curvature="0"
       id="path3797"
       d="m 385.99987,818.35557 0,72.00019 c 6,0 8,0 8,0 0,-25.33333 0,-18.61541 0,-43.94874 l 16.0004,-0.0513 c 3.99999,-0.0128 3.9997,4.05128 3.9997,4.05128 -1e-4,24.01153 0,15.73993 0,39.94874 l 8,0 c -1e-4,-23.98293 3e-4,-20.01709 3e-4,-44.00002 0,-4 -4,-8 -8,-8 -7.0834,0 -8.0003,0.0516 -20.0004,0.0516 l 2e-4,-20.05139 z"
       style="font-size:40px;font-style:normal;font-variant:normal;font-weight:300;font-stretch:normal;text-align:start;line-height:125%;letter-spacing:0px;word-spacing:0px;writing-mode:lr-tb;text-anchor:start;fill:#beb7b7;fill-opacity:1;stroke:none;font-family:Sansation Light;-inkscape-font-specification:'Sansation Light, Light'" />
    <path
       inkscape:export-ydpi="165.78908"
       inkscape:export-xdpi="165.78908"
       inkscape:export-filename="C:\Users\paul\bitaesthetics\logo_text.png"
       inkscape:connector-curvature="0"
       id="path3799"
       style="font-size:40px;font-style:normal;font-variant:normal;font-weight:300;font-stretch:normal;text-align:start;line-height:125%;letter-spacing:0px;word-spacing:0px;writing-mode:lr-tb;text-anchor:start;fill:#beb7b7;fill-opacity:1;stroke:none;font-family:Sansation Light;-inkscape-font-specification:'Sansation Light, Light'"
       d="m 353.00017,826.35573 8,0 0,12.00001 13,0 0,8 -13,0 0,32.00001 c 0,0 0,4 4,4 l 14,0 -3.0001,8.00001 -14.9999,0 c -4,0 -8,-4 -8,-8.00001 z"
       sodipodi:nodetypes="ccccccccccssc" />
    <path
       inkscape:export-ydpi="165.78908"
       inkscape:export-xdpi="165.78908"
       inkscape:export-filename="C:\Users\paul\bitaesthetics\logo_text.png"
       sodipodi:nodetypes="cccccsccsscccccsscccc"
       d="m 463.00027,838.35574 c 4.0003,0 7.98082,4 7.98052,8 0.0514,7.3109 0.0193,19.00019 0.0193,19.00019 l -32.9998,0.006 -3e-4,13 c 0,0 10e-6,4.00025 4,3.99357 3.00001,-0.005 28.9997,0 28.9997,0 l -4,8.00001 c 0,0 -20.9994,0 -28.9994,0 -3.9999,0 -8.00009,-4 -8.0001,-8.00001 l -1.2e-4,-36.00001 c 0,-3.77124 4.2288,-8 8,-8 16.0542,0 13.4528,0 25.0002,0 z M 463,857.36218 l 7e-5,-7.00644 c 0,0 4e-4,-3.99996 -3.9998,-4 -7.9692,0 -9,0 -17,0 -4,0 -4,4 -4,4 l 0,7 z"
       style="font-size:40px;font-style:normal;font-variant:normal;font-weight:300;font-stretch:normal;text-align:start;line-height:125%;letter-spacing:0px;word-spacing:0px;writing-mode:lr-tb;text-anchor:start;fill:#beb7b7;fill-opacity:1;stroke:none;font-family:Sansation Light;-inkscape-font-specification:'Sansation Light, Light'"
       id="path3801"
       inkscape:connector-curvature="0" />
    <path
       inkscape:connector-curvature="0"
       id="path3803"
       style="font-size:40px;font-style:normal;font-variant:normal;font-weight:300;font-stretch:normal;text-align:start;line-height:125%;letter-spacing:0px;word-spacing:0px;writing-mode:lr-tb;text-anchor:start;fill:#beb7b7;fill-opacity:1;stroke:none;font-family:Sansation Light;-inkscape-font-specification:'Sansation Light, Light'"
       d="m 574.99997,890.35576 4.0003,-8.00001 c 8.305,0.1832 17.1979,0 26.0001,0 4,0 4,-4 4,-4 l -4e-4,-9 c 0,0 4e-4,-4.01876 -3.9996,-4 -12,0 -8.6783,0.046 -22.0004,0 -3.7712,0 -7.9997,-4 -8,-8.00001 l 3e-4,-11 c 0,-4 4.8005,-7.99996 8.0001,-8 15.0014,-0.024 11.2755,0 25.9996,0 l 3.9999,8 c -12,0 -17.2496,8e-5 -25.9995,0 -4,0 -4,4 -4,4 l -2e-4,2.99988 c 0,0 2e-4,4.00012 4,4 12.0002,1.2e-4 10.0002,1.2e-4 22.0002,1.2e-4 4.0004,-0.1876 8,4.00001 7.9996,8.00001 l 0,17 c 0,4.00001 -4,8.00001 -8,8.00001 -8.8021,-4e-5 -25.9999,0 -34,0 z"
       sodipodi:nodetypes="ccccccccccccccccccccc"
       inkscape:export-filename="C:\Users\paul\bitaesthetics\logo_text.png"
       inkscape:export-xdpi="165.78908"
       inkscape:export-ydpi="165.78908" />
    <path
       id="path3805"
       d="m 220,838.375 4,8 25,0 c 0,0 4,0 4,4 5e-5,4.17392 0,2.77936 0,7 l -29,0 c -3.6325,0 -8,4 -8,8 l 0,17 c 0,4 4,8 8,8 8.5,10e-5 20.125,0 29,0 4,0 7.9999,-4 8,-8 10e-5,-5.6667 0,-9.5873 0,-17 0,0 15.3333,-5e-4 26,0 3.9999,2e-4 7.9999,-3.9998 8,-8 10e-5,-3 0,-4.72 0,-7 l 0,-4 c 3e-4,-4 -3.9997,-8 -8,-8 l -26,0 c -1.1447,0 -2.3395,0.38315 -3.4375,1.03125 2.5111,1.4407 4.4375,4.19645 4.4375,6.96875 l 0,1.21875 c 0.5877,-0.6875 1.5238,-1.21875 3,-1.21875 l 18,0 c 4.0002,0 4,4 4,4 l 0,3 c 0,4 -4,4 -4,4 l -22,0 0,-11 c 0,-4 -4,-8 -8,-8 l -33,0 z m 8,27 25,0 c -7e-5,4.39257 0,8.57665 0,12.5 -2e-4,4.5002 -4,4.5 -4,4.5 l -21,0 c -4,0 -4,-4 -4,-4 l 0,-9 c 0,0 0,-4 4,-4 z m 34,15.78125 0,1.21875 c -10e-5,2.7946 -1.9592,5.5695 -4.5,7 1.0959,0.617 2.2946,1 3.5,1 l 30,0 4,-8 -30,0 c -1.4762,0 -2.4123,-0.53125 -3,-1.21875 z"
       style="font-size:40px;font-style:normal;font-variant:normal;font-weight:300;font-stretch:normal;text-align:start;line-height:125%;letter-spacing:0px;word-spacing:0px;writing-mode:lr-tb;text-anchor:start;fill:#beb7b7;fill-opacity:1;stroke:none;font-family:Sansation Light;-inkscape-font-specification:'Sansation Light, Light'"
       inkscape:connector-curvature="0" />
    <path
       sodipodi:nodetypes="ccccccccccssc"
       d="m 182.00017,826.35573 8,0 0,12.00001 13,0 0,8 -13,0 0,32.00001 c 0,0 0,4 4,4 l 14,0 -4.0001,8.00001 -13.9999,0 c -4,0 -8,-4 -8,-8.00001 z"
       style="font-size:40px;font-style:normal;font-variant:normal;font-weight:300;font-stretch:normal;text-align:start;line-height:125%;letter-spacing:0px;word-spacing:0px;writing-mode:lr-tb;text-anchor:start;fill:#b34e28;fill-opacity:1;stroke:none;font-family:Sansation Light;-inkscape-font-specification:'Sansation Light, Light'"
       id="path3807"
       inkscape:connector-curvature="0"
       inkscape:export-filename="C:\Users\paul\bitaesthetics\logo_small1.png"
       inkscape:export-xdpi="449.99805"
       inkscape:export-ydpi="449.99805" />
    <path
       sodipodi:nodetypes="ccccccccccssc"
       d="m 479.00017,826.35573 8,0 0,12.00001 13,0 0,8 -13,0 0,32.00001 c 0,0 0,4 4,4 l 14,0 -3.0001,8.00001 -14.9999,0 c -4,0 -8,-4 -8,-8.00001 z"
       style="font-size:40px;font-style:normal;font-variant:normal;font-weight:300;font-stretch:normal;text-align:start;line-height:125%;letter-spacing:0px;word-spacing:0px;writing-mode:lr-tb;text-anchor:start;fill:#beb7b7;fill-opacity:1;stroke:none;font-family:Sansation Light;-inkscape-font-specification:'Sansation Light, Light'"
       id="path3809"
       inkscape:connector-curvature="0"
       inkscape:export-filename="C:\Users\paul\bitaesthetics\logo_text.png"
       inkscape:export-xdpi="165.78908"
       inkscape:export-ydpi="165.78908" />
    <path
       inkscape:connector-curvature="0"
       id="path3811"
       style="font-size:40px;font-style:normal;font-variant:normal;font-weight:300;font-stretch:normal;text-align:start;line-height:125%;letter-spacing:0px;word-spacing:0px;writing-mode:lr-tb;text-anchor:start;fill:#b34e28;fill-opacity:1;stroke:none;font-family:Sansation Light;-inkscape-font-specification:'Sansation Light, Light'"
       d="m 169.00012,846.35574 0,44.00002 -8,0 0,-44.00002 z"
       sodipodi:nodetypes="ccccc"
       inkscape:export-filename="C:\Users\paul\bitaesthetics\logo_small1.png"
       inkscape:export-xdpi="449.99805"
       inkscape:export-ydpi="449.99805" />
    <path
       inkscape:connector-curvature="0"
       id="path3869"
       style="font-size:40px;font-style:normal;font-variant:normal;font-weight:300;font-stretch:normal;text-align:start;line-height:125%;letter-spacing:0px;word-spacing:0px;writing-mode:lr-tb;text-anchor:start;fill:#4a5875;fill-opacity:1;stroke:none;font-family:Sansation Light;-inkscape-font-specification:'Sansation Light, Light'"
       d="m 117.0001,642.35575 c 0,0 13.22917,0 20.00001,0 4,0 4,-4 4,-4 0,-32.00001 0,4 0,-28.00001 0,0 0,-3.99996 -4,-4 -7.50004,0 -20.00001,0 -20.00001,0 z m -8,-64.00002 8.20312,0 -0.2032,20.00001 c 0,0 16.91669,0 24.00009,0 4,0 8,4 8,8 0,40.00001 0,-4 0,36.00001 0,4.00001 -4,8.00001 -8,8.00001 -11.77088,0 -32.00009,-2e-4 -32.00009,-2e-4 z"
       sodipodi:nodetypes="csccscccccsccscc"
       inkscape:export-filename="C:\Users\paul\bitaesthetics\logo_small1.png"
       inkscape:export-xdpi="449.99805"
       inkscape:export-ydpi="449.99805" />
    <path
       inkscape:connector-curvature="0"
       id="path3871"
       style="font-size:40px;font-style:normal;font-variant:normal;font-weight:300;font-stretch:normal;text-align:start;line-height:125%;letter-spacing:0px;word-spacing:0px;writing-mode:lr-tb;text-anchor:start;fill:#4a5875;fill-opacity:1;stroke:none;font-family:Sansation Light;-inkscape-font-specification:'Sansation Light, Light'"
       d="m 169.00012,590.35573 0,8.00001 -8,0 0,-8.00001 z"
       sodipodi:nodetypes="ccccc"
       inkscape:export-filename="C:\Users\paul\bitaesthetics\logo_small1.png"
       inkscape:export-xdpi="449.99805"
       inkscape:export-ydpi="449.99805" />
    <path
       inkscape:connector-curvature="0"
       id="path3873"
       style="font-size:40px;font-style:normal;font-variant:normal;font-weight:300;font-stretch:normal;text-align:start;line-height:125%;letter-spacing:0px;word-spacing:0px;writing-mode:lr-tb;text-anchor:start;fill:#beb7b7;fill-opacity:1;stroke:none;font-family:Sansation Light;-inkscape-font-specification:'Sansation Light, Light'"
       d="m 302.99997,650.35576 4.0003,-8.00001 c 8.305,0.1832 17.1979,0 26.0001,0 4,0 4,-4 4,-4 l -4e-4,-9 c 0,0 4e-4,-4.01876 -3.9996,-4 -12,0 -8.6783,0.046 -22.0004,0 -3.7712,0 -7.9997,-4 -8,-8.00001 l 3e-4,-11 c 0,-4 4.8005,-7.99996 8.0001,-8 15.0014,-0.024 11.2755,0 25.9996,0 l 3.9999,8 c -12,0 -17.2496,8e-5 -25.9995,0 -4,0 -4,4 -4,4 l -2e-4,2.99988 c 0,0 2e-4,4.00012 4,4 12.0002,1.2e-4 10.0002,1.2e-4 22.0002,1.2e-4 4.0004,-0.1876 8,4.00001 7.9996,8.00001 l 0,17 c 0,4.00001 -4,8.00001 -8,8.00001 -8.8021,-4e-5 -25.9999,0 -34,0 z"
       sodipodi:nodetypes="ccccccccccccccccccccc"
       inkscape:export-filename="C:\Users\paul\bitaesthetics\logo_text.png"
       inkscape:export-xdpi="165.78908"
       inkscape:export-ydpi="165.78908" />
    <path
       inkscape:connector-curvature="0"
       id="path3875"
       style="font-size:40px;font-style:normal;font-variant:normal;font-weight:300;font-stretch:normal;text-align:start;line-height:125%;letter-spacing:0px;word-spacing:0px;writing-mode:lr-tb;text-anchor:start;fill:#beb7b7;fill-opacity:1;stroke:none;font-family:Sansation Light;-inkscape-font-specification:'Sansation Light, Light'"
       d="m 561.99997,650.35576 c 0,0 -14.1872,0 -21.9997,0 -3.9996,4e-5 -8,-4 -8,-8.00001 0,-8 0,-20.63456 0,-36.00001 0,-4 4.0004,-7.99996 8,-8 8,0 21.9997,0 21.9997,0 l 4,8 -21.9997,0 c 0,0 -4,0.2288 -4,4 -10e-5,10.64925 -10e-5,21.36713 0,28.00001 -3e-4,3.77124 4,4 4,4 l 21.9997,0 z"
       sodipodi:nodetypes="csscccccccccc"
       inkscape:export-filename="C:\Users\paul\bitaesthetics\logo_text.png"
       inkscape:export-xdpi="165.78908"
       inkscape:export-ydpi="165.78908" />
    <path
       inkscape:export-ydpi="449.99805"
       inkscape:export-xdpi="449.99805"
       inkscape:export-filename="C:\Users\paul\bitaesthetics\logo_small1.png"
       sodipodi:nodetypes="ccccc"
       d="m 521.00012,590.36217 0,8.00001 -8,0 0,-8.00001 z"
       style="font-size:40px;font-style:normal;font-variant:normal;font-weight:300;font-stretch:normal;text-align:start;line-height:125%;letter-spacing:0px;word-spacing:0px;writing-mode:lr-tb;text-anchor:start;fill:#beb7b7;fill-opacity:1;stroke:none;font-family:Sansation Light;-inkscape-font-specification:'Sansation Light, Light'"
       id="path3877"
       inkscape:connector-curvature="0" />
    <path
       inkscape:connector-curvature="0"
       id="path3879"
       style="font-size:40px;font-style:normal;font-variant:normal;font-weight:300;font-stretch:normal;text-align:start;line-height:125%;letter-spacing:0px;word-spacing:0px;writing-mode:lr-tb;text-anchor:start;fill:#beb7b7;fill-opacity:1;stroke:none;font-family:Sansation Light;-inkscape-font-specification:'Sansation Light, Light'"
       d="m 521.00012,606.36216 0,44.00002 -8,0 0,-44.00002 z"
       sodipodi:nodetypes="ccccc"
       inkscape:export-filename="C:\Users\paul\bitaesthetics\logo_small1.png"
       inkscape:export-xdpi="449.99805"
       inkscape:export-ydpi="449.99805" />
    <path
       style="font-size:40px;font-style:normal;font-variant:normal;font-weight:300;font-stretch:normal;text-align:start;line-height:125%;letter-spacing:0px;word-spacing:0px;writing-mode:lr-tb;text-anchor:start;fill:#beb7b7;fill-opacity:1;stroke:none;font-family:Sansation Light;-inkscape-font-specification:'Sansation Light, Light'"
       d="m 385.99987,578.35557 0,72.00019 c 6,0 8,0 8,0 0,-25.33333 0,-18.61541 0,-43.94874 l 16.0004,-0.0513 c 3.99999,-0.0128 3.9997,4.05128 3.9997,4.05128 -1e-4,24.01153 0,15.73993 0,39.94874 l 8,0 c -1e-4,-23.98293 3e-4,-20.01709 3e-4,-44.00002 0,-4 -4,-8 -8,-8 -7.0834,0 -8.0003,0.0516 -20.0004,0.0516 l 2e-4,-20.05139 z"
       id="path3881"
       inkscape:connector-curvature="0"
       sodipodi:nodetypes="ccccscccssccc"
       inkscape:export-filename="C:\Users\paul\bitaesthetics\logo_text.png"
       inkscape:export-xdpi="165.78908"
       inkscape:export-ydpi="165.78908" />
    <path
       sodipodi:nodetypes="ccccccccccssc"
       d="m 353.00017,586.35573 8,0 0,12.00001 13,0 0,8 -13,0 0,32.00001 c 0,0 0,4 4,4 l 14,0 -3.0001,8.00001 -14.9999,0 c -4,0 -8,-4 -8,-8.00001 z"
       style="font-size:40px;font-style:normal;font-variant:normal;font-weight:300;font-stretch:normal;text-align:start;line-height:125%;letter-spacing:0px;word-spacing:0px;writing-mode:lr-tb;text-anchor:start;fill:#beb7b7;fill-opacity:1;stroke:none;font-family:Sansation Light;-inkscape-font-specification:'Sansation Light, Light'"
       id="path3883"
       inkscape:connector-curvature="0"
       inkscape:export-filename="C:\Users\paul\bitaesthetics\logo_text.png"
       inkscape:export-xdpi="165.78908"
       inkscape:export-ydpi="165.78908" />
    <path
       inkscape:connector-curvature="0"
       id="path3885"
       style="font-size:40px;font-style:normal;font-variant:normal;font-weight:300;font-stretch:normal;text-align:start;line-height:125%;letter-spacing:0px;word-spacing:0px;writing-mode:lr-tb;text-anchor:start;fill:#beb7b7;fill-opacity:1;stroke:none;font-family:Sansation Light;-inkscape-font-specification:'Sansation Light, Light'"
       d="m 463.00027,598.35574 c 4.0003,0 7.98082,4 7.98052,8 0.0514,7.3109 0.0193,19.00019 0.0193,19.00019 l -32.9998,0.006 -3e-4,13 c 0,0 10e-6,4.00025 4,3.99357 3.00001,-0.005 28.9997,0 28.9997,0 l -4,8.00001 c 0,0 -20.9994,0 -28.9994,0 -3.9999,0 -8.00009,-4 -8.0001,-8.00001 l -1.2e-4,-36.00001 c 0,-3.77124 4.2288,-8 8,-8 16.0542,0 13.4528,0 25.0002,0 z M 463,617.36218 l 7e-5,-7.00644 c 0,0 4e-4,-3.99996 -3.9998,-4 -7.9692,0 -9,0 -17,0 -4,0 -4,4 -4,4 l 0,7 z"
       sodipodi:nodetypes="cccccsccsscccccsscccc"
       inkscape:export-filename="C:\Users\paul\bitaesthetics\logo_text.png"
       inkscape:export-xdpi="165.78908"
       inkscape:export-ydpi="165.78908" />
    <path
       inkscape:export-ydpi="165.78908"
       inkscape:export-xdpi="165.78908"
       inkscape:export-filename="C:\Users\paul\bitaesthetics\logo_text.png"
       sodipodi:nodetypes="ccccccccccccccccccccc"
       d="m 574.99997,650.35576 4.0003,-8.00001 c 8.305,0.1832 17.1979,0 26.0001,0 4,0 4,-4 4,-4 l -4e-4,-9 c 0,0 4e-4,-4.01876 -3.9996,-4 -12,0 -8.6783,0.046 -22.0004,0 -3.7712,0 -7.9997,-4 -8,-8.00001 l 3e-4,-11 c 0,-4 4.8005,-7.99996 8.0001,-8 15.0014,-0.024 11.2755,0 25.9996,0 l 3.9999,8 c -12,0 -17.2496,8e-5 -25.9995,0 -4,0 -4,4 -4,4 l -2e-4,2.99988 c 0,0 2e-4,4.00012 4,4 12.0002,1.2e-4 10.0002,1.2e-4 22.0002,1.2e-4 4.0004,-0.1876 8,4.00001 7.9996,8.00001 l 0,17 c 0,4.00001 -4,8.00001 -8,8.00001 -8.8021,-4e-5 -25.9999,0 -34,0 z"
       style="font-size:40px;font-style:normal;font-variant:normal;font-weight:300;font-stretch:normal;text-align:start;line-height:125%;letter-spacing:0px;word-spacing:0px;writing-mode:lr-tb;text-anchor:start;fill:#beb7b7;fill-opacity:1;stroke:none;font-family:Sansation Light;-inkscape-font-specification:'Sansation Light, Light'"
       id="path3887"
       inkscape:connector-curvature="0" />
    <path
       inkscape:connector-curvature="0"
       style="font-size:40px;font-style:normal;font-variant:normal;font-weight:300;font-stretch:normal;text-align:start;line-height:125%;letter-spacing:0px;word-spacing:0px;writing-mode:lr-tb;text-anchor:start;fill:#beb7b7;fill-opacity:1;stroke:none;font-family:Sansation Light;-inkscape-font-specification:'Sansation Light, Light'"
       d="m 220,598.375 4,8 25,0 c 0,0 4,0 4,4 5e-5,4.17392 0,2.77936 0,7 l -29,0 c -3.6325,0 -8,4 -8,8 l 0,17 c 0,4 4,8 8,8 8.5,10e-5 20.125,0 29,0 4,0 7.9999,-4 8,-8 10e-5,-5.6667 0,-9.5873 0,-17 0,0 15.3333,-5e-4 26,0 3.9999,2e-4 7.9999,-3.9998 8,-8 10e-5,-3 0,-4.72 0,-7 l 0,-4 c 3e-4,-4 -3.9997,-8 -8,-8 l -26,0 c -1.1447,0 -2.3395,0.38315 -3.4375,1.03125 2.5111,1.4407 4.4375,4.19645 4.4375,6.96875 l 0,1.21875 c 0.5877,-0.6875 1.5238,-1.21875 3,-1.21875 l 18,0 c 4.0002,0 4,4 4,4 l 0,3 c 0,4 -4,4 -4,4 l -22,0 0,-11 c 0,-4 -4,-8 -8,-8 l -33,0 z m 8,27 25,0 c -7e-5,4.39257 0,8.57665 0,12.5 -2e-4,4.5002 -4,4.5 -4,4.5 l -21,0 c -4,0 -4,-4 -4,-4 l 0,-9 c 0,0 0,-4 4,-4 z m 34,15.78125 0,1.21875 c -10e-5,2.7946 -1.9592,5.5695 -4.5,7 1.0959,0.617 2.2946,1 3.5,1 l 30,0 4,-8 -30,0 c -1.4762,0 -2.4123,-0.53125 -3,-1.21875 z"
       id="path3889" />
    <path
       inkscape:export-ydpi="449.99805"
       inkscape:export-xdpi="449.99805"
       inkscape:export-filename="C:\Users\paul\bitaesthetics\logo_small1.png"
       inkscape:connector-curvature="0"
       id="path3891"
       style="font-size:40px;font-style:normal;font-variant:normal;font-weight:300;font-stretch:normal;text-align:start;line-height:125%;letter-spacing:0px;word-spacing:0px;writing-mode:lr-tb;text-anchor:start;fill:#4a5875;fill-opacity:1;stroke:none;font-family:Sansation Light;-inkscape-font-specification:'Sansation Light, Light'"
       d="m 182.00017,586.35573 8,0 0,12.00001 13,0 0,8 -13,0 0,32.00001 c 0,0 0,4 4,4 l 14,0 -4.0001,8.00001 -13.9999,0 c -4,0 -8,-4 -8,-8.00001 z"
       sodipodi:nodetypes="ccccccccccssc" />
    <path
       inkscape:export-ydpi="165.78908"
       inkscape:export-xdpi="165.78908"
       inkscape:export-filename="C:\Users\paul\bitaesthetics\logo_text.png"
       inkscape:connector-curvature="0"
       id="path3893"
       style="font-size:40px;font-style:normal;font-variant:normal;font-weight:300;font-stretch:normal;text-align:start;line-height:125%;letter-spacing:0px;word-spacing:0px;writing-mode:lr-tb;text-anchor:start;fill:#beb7b7;fill-opacity:1;stroke:none;font-family:Sansation Light;-inkscape-font-specification:'Sansation Light, Light'"
       d="m 479.00017,586.35573 8,0 0,12.00001 13,0 0,8 -13,0 0,32.00001 c 0,0 0,4 4,4 l 14,0 -3.0001,8.00001 -14.9999,0 c -4,0 -8,-4 -8,-8.00001 z"
       sodipodi:nodetypes="ccccccccccssc" />
    <path
       inkscape:export-ydpi="449.99805"
       inkscape:export-xdpi="449.99805"
       inkscape:export-filename="C:\Users\paul\bitaesthetics\logo_small1.png"
       sodipodi:nodetypes="ccccc"
       d="m 169.00012,606.35574 0,44.00002 -8,0 0,-44.00002 z"
       style="font-size:40px;font-style:normal;font-variant:normal;font-weight:300;font-stretch:normal;text-align:start;line-height:125%;letter-spacing:0px;word-spacing:0px;writing-mode:lr-tb;text-anchor:start;fill:#4a5875;fill-opacity:1;stroke:none;font-family:Sansation Light;-inkscape-font-specification:'Sansation Light, Light'"
       id="path3895"
       inkscape:connector-curvature="0" />
  </g>
</svg>
