<?xml version="1.0" encoding="UTF-8" standalone="no"?>
<svg
   xmlns:dc="http://purl.org/dc/elements/1.1/"
   xmlns:cc="http://creativecommons.org/ns#"
   xmlns:rdf="http://www.w3.org/1999/02/22-rdf-syntax-ns#"
   xmlns:svg="http://www.w3.org/2000/svg"
   xmlns="http://www.w3.org/2000/svg"
   xmlns:sodipodi="http://sodipodi.sourceforge.net/DTD/sodipodi-0.dtd"
   xmlns:inkscape="http://www.inkscape.org/namespaces/inkscape"
   width="127"
   height="18"
   version="1.1"
   id="svg2"
   inkscape:version="0.48.2 r9819"
   sodipodi:docname="logo-size1.svg">
  <metadata
     id="metadata42">
    <rdf:RDF>
      <cc:Work
         rdf:about="">
        <dc:format>image/svg+xml</dc:format>
        <dc:type
           rdf:resource="http://purl.org/dc/dcmitype/StillImage" />
        <dc:title />
      </cc:Work>
    </rdf:RDF>
  </metadata>
  <sodipodi:namedview
     pagecolor="#ffffff"
     bordercolor="#666666"
     borderopacity="1"
     objecttolerance="10"
     gridtolerance="10"
     guidetolerance="10"
     inkscape:pageopacity="0"
     inkscape:pageshadow="2"
     inkscape:window-width="1440"
     inkscape:window-height="852"
     id="namedview40"
     showgrid="false"
     inkscape:zoom="1"
     inkscape:cx="118.5"
     inkscape:cy="6"
     inkscape:window-x="0"
     inkscape:window-y="0"
     inkscape:window-maximized="1"
     inkscape:current-layer="svg2">
    <inkscape:grid
       type="xygrid"
       id="grid3019"
       empspacing="5"
       visible="true"
       enabled="true"
       snapvisiblegridlinesonly="true" />
  </sodipodi:namedview>
  <defs
     id="defs4">
    <style
       type="text/css"
       id="style6">
      .logo-text-emphasized {
        fill: #ddd;
      }

      .logo-text-regular {
        fill: #999;
      }
      </style>
  </defs>
  <g
     class="logo-text-emphasized"
     id="g8"
     style="fill:#dddddd"
     transform="scale(0.5,0.5)">
    <path
       d="m 4,32 c 0,0 6.5,0 10,0 2,0 2,-2 2,-2 0,-16 0,2 0,-14 0,0 0,-2 -2,-2 -3.5,0 -10,0 -10,0 z M 0,0 4,0 4,10 c 0,0 8.5,0 12,0 2,0 4,2 4,4 0,20 0,-2 0,18 0,2 -2,4 -4,4 -6,0 -16,0 -16,0 z"
       id="path10"
       inkscape:connector-curvature="0" />
    <path
       d="m 30,6 0,4 -4,0 0,-4 z"
       id="path12"
       inkscape:connector-curvature="0" />
    <path
       d="m 30,14 0,22 -4,0 0,-22 z"
       id="path14"
       inkscape:connector-curvature="0" />
    <path
       d="m 36,4 4,0 0,6 6,0 0,4 -6,0 0,16 c 0,0 0,2 2,2 l 7,0 -2,4 -7,0 c -2,0 -4,-2 -4,-4 z"
       id="path16"
       inkscape:connector-curvature="0" />
  </g>
  <path
     style="fill:#999999"
     sodipodi:nodetypes="cccscsssssscsssssscscsscsccsscscscsccscscsccsc"
     inkscape:connector-curvature="0"
     id="path36"
     d="m 27.5,5 1,2 6.5,0 c 0,0 1,0 1,1 0,1 0,1 0,2 l -7,0 c -1,0 -2,1 -2,2 l 0,4 c 0,1 1,2 2,2 2,0 4.75,0 7,0 1,0 2,-1 2,-2 0,-1.5 0,-2.25 0,-4 0,0 3.25,0 6,0 1,0 2,-1 2,-2 0,-0.75 0,-1.5 0,-2 L 46,7 C 46,6 45,5 44,5 l -5.625,0 c -0.25,0 -0.5,0 -0.75,0.25 0.75,0.25 1,1 1,1.75 l 0,0.25 C 38.875,7 39.125,7 39.375,7 L 43,7 c 1,0 1,1 1,1 l 0,1 c 0,1 -1,1 -1,1 l -5,0 0,-3 C 38,6 37,5 36,5 z m 2.5,7 6,0 c 0,1 0,2 0,2.75 C 36,16 35,16 35,16 l -5,0 c -1,0 -1,-1 -1,-1 l 0,-2 c 0,0 0,-1 1,-1 z m 8.625,3.75 0,0.25 c 0,0.75 -0.5,1.5 -1,1.75 0.25,0.25 0.5,0.25 0.75,0.25 l 6.625,0 1,-2 -6.625,0 c -0.25,0 -0.5,0 -0.75,-0.25 z" />
  <path
     style="fill:#999999"
     sodipodi:nodetypes="ccsccsssssccsccsssssc"
     inkscape:connector-curvature="0"
     id="path20"
     d="m 48,18 1,-2 c 2,0 3.75,0 6,0 1,0 1,-1 1,-1 l 0,-2 c 0,0 0,-1 -1,-1 -3,0 -1.75,0 -5,0 -1,0 -2,-1 -2,-2 l 0,-3 c 0,-1 1,-2 2,-2 1.5,0 4,0 6,0 l 1,2 c -3,0 -3.75,0 -6,0 -1,0 -1,1 -1,1 l 0,1 c 0,0 0,1 1,1 3,0 2,0 5,0 1,0 2,1 2,2 l 0,4 c 0,1 -1,2 -2,2 -2.25,0 -6,0 -8,0 z" />
  <path
     style="fill:#999999"
     sodipodi:nodetypes="csssscccssccc"
     inkscape:connector-curvature="0"
     id="path22"
     d="m 113,18 c 0,0 -3,0 -5,0 -1,0 -2,-1 -2,-2 0,-2 0,-5.25 0,-9 0,-1 1,-2 2,-2 2,0 5,0 5,0 l 1,2 -5,0 c 0,0 -1,0 -1,1 0,2.75 0,5.25 0,7 0,1 1,1 1,1 l 5,0 z" />
  <path
     style="fill:#999999"
     inkscape:connector-curvature="0"
     id="path24"
     d="m 103,3 0,2 -2,0 0,-2 z" />
  <path
     style="fill:#999999"
     inkscape:connector-curvature="0"
     id="path26"
     d="m 103,7 0,11 -2,0 0,-11 z" />
  <path
     style="fill:#999999"
     sodipodi:nodetypes="ccccscccssccc"
     inkscape:connector-curvature="0"
     id="path28"
     d="m 68,0 0,18 c 1.5,0 2,0 2,0 0,-6.25 0,-4.75 0,-11 l 4,0 c 1,0 1,1 1,1 0,6 0,4 0,10 l 2,0 C 77,12 77,13 77,7 77,6 76,5 75,5 73.25,5 73,5 70,5 l 0,-5 z" />
  <path
     style="fill:#999999"
     inkscape:connector-curvature="0"
     id="path30"
     d="m 60,2 2,0 0,3 3,0 0,2 -3,0 0,8 c 0,0 0,1 1,1 l 3.5,0 -0.75,2 -3.75,0 c -1,0 -2,-1 -2,-2 z" />
  <path
     style="fill:#999999"
     inkscape:connector-curvature="0"
     id="path32"
     d="m 88,5 c 1,0 2,1 2,2 0,1.75 0,5 0,5 l -8,0 0,3 c 0,0 0,1 1,1 0.75,0 7,0 7,0 l -1,2 c 0,0 -5,0 -7,0 -1,0 -2,-1 -2,-2 l 0,-9 c 0,-1 1,-2 2,-2 4,0 3,0 6,0 z m 0,5 0,-2 c 0,0 0,-1 -1,-1 -2,0 -2,0 -4,0 -1,0 -1,1 -1,1 l 0,2 z" />
  <path
     style="fill:#999999"
     sodipodi:nodetypes="ccsccsssssccsccsssssc"
     inkscape:connector-curvature="0"
     id="path34"
     d="m 116,18 1,-2 c 2,0 3.75,0 6,0 1,0 1,-1 1,-1 l 0,-2 c 0,0 0,-1 -1,-1 -3,0 -1.75,0 -5,0 -1,0 -2,-1 -2,-2 l 0,-3 c 0,-1 1,-2 2,-2 1.5,0 4,0 6,0 l 1,2 c -3,0 -3.75,0 -6,0 -1,0 -1,1 -1,1 l 0,1 c 0,0 0,1 1,1 3,0 2,0 5,0 1,0 2,1 2,2 l 0,4 c 0,1 -1,2 -2,2 -2.25,0 -6,0 -8,0 z" />
  <path
     style="fill:#999999"
     sodipodi:nodetypes="cccccccsccssc"
     inkscape:connector-curvature="0"
     id="path38"
     d="m 93,2 2,0 0,3 3,0 0,2 -3,0 0,8 c 0,0 0,1 1,1 l 2.825,0 -0.75,2 L 95,18 c -1,0 -1.992855,-1.000026 -2,-2 z" />
</svg>
